<?xml version="1.0" encoding="UTF-8"?><svg height="100px" width="654px" id="_레이어_1" xmlns="http://www.w3.org/2000/svg" viewBox="0 0 279.56 42.78"><defs><style>.cls-1{fill:#fff;}.cls-2{fill:#c98b4a;}.cls-3{fill:#1a82c0;}</style></defs><path class="cls-1" d="M15.11,28.08v10.61H4.92V9.86c0-1.28,.12-2.36,.37-3.25s.67-1.62,1.26-2.18c.59-.56,1.39-.97,2.38-1.23s2.23-.38,3.71-.38h8.61c2.15,0,4.13,.25,5.94,.74,1.81,.49,3.38,1.23,4.7,2.23,1.32,1,2.35,2.27,3.09,3.81,.74,1.54,1.11,3.37,1.11,5.48v.76c0,2.11-.37,3.94-1.11,5.48s-1.77,2.81-3.09,3.81c-1.32,1-2.89,1.74-4.7,2.23-1.82,.49-3.8,.74-5.94,.74h-6.14Zm0-7.75h5.64c.82,0,1.56-.13,2.2-.38s1.19-.6,1.63-1.05,.78-.95,1.02-1.52c.23-.56,.35-1.16,.35-1.78v-.31c0-.62-.12-1.22-.35-1.78-.23-.56-.57-1.07-1.02-1.52s-.99-.79-1.63-1.05c-.64-.25-1.38-.38-2.2-.38h-4.21c-.56,0-.94,.08-1.14,.25-.2,.16-.3,.51-.3,1.05v8.47Z"/><g><path class="cls-1" d="M68.98,24.29h-12.53v14.39h-10.2V7.18c0-.74,.14-1.4,.42-1.96,.28-.56,.65-1.04,1.11-1.43,.46-.39,1.01-.68,1.63-.87,.63-.19,1.27-.29,1.93-.29s1.3,.1,1.91,.29c.61,.19,1.16,.48,1.63,.87,.48,.39,.86,.86,1.14,1.43,.28,.56,.42,1.22,.42,1.96v9.36h12.53V7.18c0-.74,.14-1.4,.42-1.96,.28-.56,.65-1.04,1.11-1.43,.46-.39,1.01-.68,1.63-.87,.63-.19,1.27-.29,1.93-.29s1.29,.1,1.91,.29c.61,.19,1.15,.48,1.63,.87,.48,.39,.86,.86,1.14,1.43,.28,.56,.42,1.22,.42,1.96v31.5h-10.2v-14.39Z"/><path class="cls-1" d="M114.58,14.98c0,2.14-.55,4-1.66,5.59-1.11,1.59-2.55,2.89-4.33,3.9l9.41,14.21h-11.19l-7.43-11.99h-6.34v11.99h-10.15V9.86c0-1.28,.12-2.36,.37-3.25s.67-1.62,1.26-2.18c.59-.56,1.39-.97,2.38-1.23s2.23-.38,3.71-.38h9.11c2.15,0,4.13,.23,5.94,.69,1.81,.46,3.38,1.17,4.7,2.14,1.32,.97,2.35,2.18,3.09,3.63,.74,1.46,1.11,3.18,1.11,5.17v.53Zm-21.54,4.19h6.44c1.68,0,2.95-.42,3.79-1.25,.84-.83,1.26-1.81,1.26-2.94v-.31c0-1.13-.42-2.11-1.26-2.94-.84-.83-2.1-1.25-3.79-1.25h-5c-.56,0-.94,.08-1.14,.25-.2,.16-.3,.51-.3,1.05v7.4Z"/><path class="cls-1" d="M133.4,2.82c2.15,0,4.27,.27,6.36,.82,2.1,.55,3.98,1.47,5.64,2.76,1.67,1.29,3.01,2.99,4.04,5.1,1.02,2.11,1.53,4.71,1.53,7.8v2.9c0,3.09-.51,5.69-1.53,7.8-1.02,2.11-2.37,3.81-4.04,5.1-1.67,1.29-3.55,2.21-5.64,2.76-2.1,.55-4.22,.82-6.36,.82h-7.38c-1.49,0-2.72-.13-3.71-.38s-1.78-.66-2.38-1.23c-.59-.56-1.02-1.29-1.26-2.18-.25-.89-.37-1.97-.37-3.25V9.86c0-1.28,.12-2.36,.37-3.25s.67-1.62,1.26-2.18c.59-.56,1.39-.97,2.38-1.23s2.23-.38,3.71-.38h7.38Zm7.48,15.77c0-2.61-.71-4.61-2.13-5.99-1.42-1.38-3.3-2.07-5.64-2.07h-3.27c-.56,0-.94,.08-1.14,.24-.2,.16-.3,.51-.3,1.05V29.69c0,.53,.1,.88,.3,1.05,.2,.16,.58,.25,1.14,.25h3.27c2.34,0,4.22-.69,5.64-2.07,1.42-1.38,2.13-3.38,2.13-5.99v-4.32Z"/><path class="cls-1" d="M153.94,38.69V9.86c0-1.28,.12-2.36,.37-3.25,.25-.89,.67-1.62,1.26-2.18,.59-.56,1.39-.97,2.38-1.23s2.23-.38,3.71-.38h16.49c.73,0,1.34,.12,1.83,.36,.5,.24,.91,.55,1.24,.94,.33,.39,.57,.82,.72,1.29,.15,.48,.22,.94,.22,1.38s-.07,.9-.22,1.36c-.15,.46-.38,.88-.69,1.25-.31,.37-.73,.67-1.24,.89-.51,.22-1.13,.33-1.86,.33h-12.58c-.56,0-.94,.08-1.14,.25-.2,.16-.3,.51-.3,1.05v5.61h12.72c.73,0,1.34,.12,1.83,.36,.5,.24,.91,.55,1.24,.94,.33,.39,.57,.82,.72,1.29,.15,.48,.22,.94,.22,1.38s-.07,.9-.22,1.36c-.15,.46-.38,.88-.69,1.25-.31,.37-.73,.67-1.24,.89-.51,.22-1.13,.33-1.86,.33h-12.72v13.37h-10.2Z"/><path class="cls-1" d="M191.92,38.69c-1.49,0-2.72-.13-3.71-.38s-1.78-.66-2.38-1.23c-.59-.56-1.01-1.29-1.26-2.18-.25-.89-.37-1.97-.37-3.25V7.18c0-.74,.14-1.4,.42-1.96,.28-.56,.66-1.04,1.14-1.43,.48-.39,1.03-.68,1.66-.87,.63-.19,1.27-.29,1.93-.29s1.3,.1,1.93,.29c.63,.19,1.18,.48,1.66,.87,.48,.39,.86,.86,1.14,1.43,.28,.56,.42,1.22,.42,1.96V29.6c0,.54,.1,.88,.3,1.05,.2,.16,.58,.25,1.14,.25h10.99c.73,0,1.34,.11,1.86,.33,.51,.22,.92,.52,1.24,.89,.31,.37,.54,.79,.69,1.25,.15,.46,.22,.91,.22,1.36s-.07,.91-.22,1.38c-.15,.48-.39,.91-.72,1.29-.33,.39-.74,.7-1.24,.94-.5,.24-1.11,.36-1.83,.36h-15Z"/><path class="cls-1" d="M222.61,16.67h13.52c.73,0,1.34,.12,1.83,.36,.5,.24,.91,.55,1.24,.94,.33,.39,.57,.81,.72,1.27,.15,.46,.22,.91,.22,1.36s-.07,.89-.22,1.34c-.15,.45-.38,.85-.69,1.23-.31,.37-.73,.67-1.24,.89-.51,.22-1.13,.33-1.86,.33h-13.52v5.21c0,.54,.1,.88,.3,1.05s.58,.25,1.14,.25h13.02c.73,0,1.34,.11,1.86,.33s.92,.52,1.24,.89c.31,.37,.54,.79,.69,1.25,.15,.46,.22,.91,.22,1.36s-.07,.91-.22,1.38c-.15,.48-.39,.91-.72,1.29s-.74,.7-1.24,.94-1.11,.36-1.83,.36h-16.88c-1.49,0-2.72-.13-3.71-.38s-1.78-.66-2.38-1.23c-.59-.56-1.02-1.29-1.26-2.18-.25-.89-.37-1.97-.37-3.25V9.86c0-1.28,.12-2.36,.37-3.25,.25-.89,.67-1.62,1.26-2.18,.59-.56,1.39-.97,2.38-1.23s2.23-.38,3.71-.38h16.39c.73,0,1.34,.12,1.83,.36,.5,.24,.91,.55,1.24,.94,.33,.39,.57,.82,.72,1.29,.15,.48,.22,.94,.22,1.38s-.07,.9-.22,1.36c-.15,.46-.38,.88-.69,1.25-.31,.37-.73,.67-1.24,.89-.51,.22-1.13,.33-1.86,.33h-12.53c-.56,0-.94,.08-1.14,.25-.2,.16-.3,.51-.3,1.05v4.77Z"/><path class="cls-1" d="M266.83,38.69l-8.02-10.16-7.33,10.16h-11.29l12.92-17.47-9.41-12.03c-.43-.56-.68-1.17-.74-1.83-.07-.65,.02-1.27,.25-1.85,.23-.58,.59-1.1,1.09-1.56,.5-.46,1.07-.79,1.73-1,1.35-.42,2.65-.42,3.89,0,1.24,.42,2.32,1.25,3.24,2.5l6.34,8.38,5.79-8.33c.92-1.28,1.96-2.12,3.09-2.52,1.14-.4,2.38-.42,3.74-.07,.66,.18,1.24,.49,1.73,.94,.5,.45,.85,.97,1.06,1.56,.21,.59,.28,1.22,.2,1.87-.08,.65-.36,1.29-.82,1.92l-9.11,12.16,13.17,17.33h-11.54Z"/></g><path class="cls-3" d="M31.95,39.48c-5.56,0-10.07-4.51-10.07-10.07s4.51-10.07,10.07-10.07,10.07,4.51,10.07,10.07-4.51,10.07-10.07,10.07"/><circle class="cls-2" cx="62.72" cy="20.75" r="7.3"/></svg>
